<?xml version="1.0" encoding="UTF-8" standalone="no"?>
<svg
   xmlns:dc="http://purl.org/dc/elements/1.1/"
   xmlns:cc="http://creativecommons.org/ns#"
   xmlns:rdf="http://www.w3.org/1999/02/22-rdf-syntax-ns#"
   xmlns:svg="http://www.w3.org/2000/svg"
   xmlns="http://www.w3.org/2000/svg"
   viewBox="0 0 666.66669 666.66669"
   height="666.66669"
   width="666.66669"
   xml:space="preserve"
   id="svg2"
   version="1.1"><metadata
     id="metadata8"><rdf:RDF><cc:Work
         rdf:about=""><dc:format>image/svg+xml</dc:format><dc:type
           rdf:resource="http://purl.org/dc/dcmitype/StillImage" /></cc:Work></rdf:RDF></metadata><defs
     id="defs6" /><g
     transform="matrix(1.3333333,0,0,-1.3333333,0,666.66667)"
     id="g10"><g
       transform="translate(500.0004,500.0004)"
       id="g12"><path
         id="path14"
         style="fill:#fcfc30;fill-opacity:1;fill-rule:nonzero;stroke:none"
         d="M 0,0 -104.163,-69.482 -52.087,-104.187 0,-69.482 Z m -250,0 -250,-166.686 104.174,-69.434 125,83.325 -52.087,34.717 67.7,45.129 145.826,-97.205 -239.564,-159.693 52.075,-34.729 L 0,-166.686 Z M -500,-333.326 -250,-500 0,-333.326 l -104.163,69.434 -125,-83.325 52.075,-34.705 -67.7,-45.142 -145.825,97.217 239.563,159.693 -52.076,34.718 z m 0,-97.205 V -500 l 104.174,69.469 -52.087,34.717 z" /></g></g></svg>