<svg width="260" height="272" viewBox="0 0 260 272" fill="none" xmlns="http://www.w3.org/2000/svg">
<path fill-rule="evenodd" clip-rule="evenodd" d="M0 234.22L27.0924 215.331L54.165 234.22L0 272V234.22ZM260 37.7795L232.927 56.6693L205.835 37.7795L260 0V37.7795ZM260 181.333L130 272L0 181.333L154.391 73.668L181.464 92.5577L56.8862 179.442L132.721 232.329L167.917 207.808L140.845 188.898L205.835 143.554L260 181.333ZM0 90.6667L130 0L260 90.6667L105.629 198.332L78.5363 179.442L203.134 92.5577L127.299 39.6706L92.0825 64.2127L119.175 83.1232L54.165 128.446L0 90.6667Z" fill="#465EFF"/>
</svg>
